<svg xmlns="http://www.w3.org/2000/svg" id="quotes" width="18.934" height="13.004" viewBox="0 0 18.934 13.004">
    <defs>
        <style>
            .cls-1{fill:#424242}
        </style>
    </defs>
    <path id="Path_84" d="M4.156 84.979a4.138 4.138 0 1 1-4.138 4.137L0 88.525a8.275 8.275 0 0 1 8.275-8.275v2.364A5.872 5.872 0 0 0 4.1 84.346a6 6 0 0 0-.588.684 4.169 4.169 0 0 1 .644-.051zm10.64 0a4.138 4.138 0 1 1-4.138 4.138l-.018-.591a8.275 8.275 0 0 1 8.275-8.275v2.364a5.872 5.872 0 0 0-4.18 1.731 5.993 5.993 0 0 0-.588.684 4.169 4.169 0 0 1 .653-.051z" class="cls-1" data-name="Path 84" transform="translate(0 -80.25)"/>
</svg>
