<svg xmlns="http://www.w3.org/2000/svg" id="solution" width="12.886" height="21.002" viewBox="0 0 12.886 21.002">
    <defs>
        <style>
            .cls-1{fill:#424242}
        </style>
    </defs>
    <g id="Group_58" data-name="Group 58" transform="translate(0 3.616)">
        <g id="Group_57" data-name="Group 57">
            <path id="Path_80" d="M111.834 94.579a6.443 6.443 0 1 0-9.96 5.4v2.03a3.517 3.517 0 0 0 7.034 0v-2.03a6.465 6.465 0 0 0 2.926-5.4zm-4.168 7.429a2.275 2.275 0 0 1-4.55 0v-.519h4.55zm.312-2.916a.621.621 0 0 0-.312.539v.616h-1.654v-3.212a2.015 2.015 0 0 0 1.391-1.913.621.621 0 1 0-1.242 0 .77.77 0 1 1-1.54 0 .621.621 0 1 0-1.242 0 2.015 2.015 0 0 0 1.391 1.913v3.211h-1.654v-.616a.621.621 0 0 0-.312-.538 5.2 5.2 0 1 1 5.173 0z" class="cls-1" data-name="Path 80" transform="translate(-98.948 -88.136)"/>
        </g>
    </g>
    <g id="Group_60" data-name="Group 60" transform="translate(5.822)">
        <g id="Group_59" data-name="Group 59">
            <path id="Path_81" d="M241.482 0a.621.621 0 0 0-.621.621v1.09a.621.621 0 1 0 1.242 0V.621a.621.621 0 0 0-.621-.621z" class="cls-1" data-name="Path 81" transform="translate(-240.861)"/>
        </g>
    </g>
    <g id="Group_62" data-name="Group 62" transform="translate(3.108 .449)">
        <g id="Group_61" data-name="Group 61">
            <path id="Path_82" d="M176.307 12.368l-.385-1.02a.621.621 0 1 0-1.162.439l.385 1.02a.621.621 0 0 0 1.162-.439z" class="cls-1" data-name="Path 82" transform="translate(-174.719 -10.947)"/>
        </g>
    </g>
    <g id="Group_64" data-name="Group 64" transform="translate(8.149 .449)">
        <g id="Group_63" data-name="Group 63">
            <path id="Path_83" d="M298.826 10.986a.621.621 0 0 0-.8.361l-.385 1.02a.621.621 0 1 0 1.162.439l.385-1.02a.621.621 0 0 0-.362-.8z" class="cls-1" data-name="Path 83" transform="translate(-297.6 -10.946)"/>
        </g>
    </g>
</svg>
