<svg xmlns="http://www.w3.org/2000/svg" id="edit_1_" width="16.561" height="16.479" data-name="edit (1)" viewBox="0 0 16.561 16.479">
    <defs>
        <style>
            .cls-1{fill:#424242}
        </style>
    </defs>
    <path id="Path_78" d="M15.285 47.908a.412.412 0 0 0-.412.412v3.662a1.239 1.239 0 0 1-1.237 1.237H2.062a1.239 1.239 0 0 1-1.237-1.237V41.234A1.239 1.239 0 0 1 2.062 40h3.662a.412.412 0 0 0 0-.825H2.062A2.065 2.065 0 0 0 0 41.234v10.748a2.065 2.065 0 0 0 2.062 2.062h11.573a2.065 2.065 0 0 0 2.065-2.062V48.32a.412.412 0 0 0-.415-.412zm0 0" class="cls-1" data-name="Path 78" transform="translate(0 -37.567)"/>
    <path id="Path_79" d="M119.262.8a1.856 1.856 0 0 0-2.625 0l-7.358 7.358a.412.412 0 0 0-.106.182l-.968 3.493a.412.412 0 0 0 .508.508l3.493-.968a.412.412 0 0 0 .182-.106l7.358-7.359a1.858 1.858 0 0 0 0-2.625zm-9.085 7.626l6.023-6.018 1.942 1.942-6.022 6.022zm-.388.778l1.552 1.552-2.146.595zm9.373-5.879l-.437.437-1.942-1.942.438-.437a1.031 1.031 0 0 1 1.458 0l.484.484a1.033 1.033 0 0 1-.001 1.463zm0 0" class="cls-1" data-name="Path 79" transform="translate(-103.727 -.261)"/>
</svg>
