<svg xmlns="http://www.w3.org/2000/svg" width="25.354" height="25.354" viewBox="0 0 25.354 25.354">
    <defs>
        <style>
            .cls-1{fill:#424242}
        </style>
    </defs>
    <g id="happy">
        <g id="Group_23" data-name="Group 23">
            <g id="Group_22" data-name="Group 22">
                <path id="Path_17" d="M21.64 3.713A12.676 12.676 0 1 0 3.713 21.64 12.676 12.676 0 1 0 21.64 3.713zm-8.963 20.131a11.167 11.167 0 1 1 11.167-11.167 11.18 11.18 0 0 1-11.167 11.167z" class="cls-1" data-name="Path 17"/>
            </g>
        </g>
        <g id="Group_25" data-name="Group 25" transform="translate(5.232 8.402)">
            <g id="Group_24" data-name="Group 24">
                <path id="Path_18" d="M110.353 170.607a3.173 3.173 0 0 0-4.482 0 .755.755 0 0 0 1.067 1.067 1.662 1.662 0 0 1 2.348 0 .755.755 0 0 0 1.067-1.067z" class="cls-1" data-name="Path 18" transform="translate(-105.65 -169.68)"/>
            </g>
        </g>
        <g id="Group_27" data-name="Group 27" transform="translate(15.198 8.402)">
            <g id="Group_26" data-name="Group 26">
                <path id="Path_19" d="M311.615 170.607a3.173 3.173 0 0 0-4.482 0 .755.755 0 1 0 1.067 1.067 1.662 1.662 0 0 1 2.348 0 .755.755 0 0 0 1.067-1.067z" class="cls-1" data-name="Path 19" transform="translate(-306.912 -169.68)"/>
            </g>
        </g>
        <g id="Group_29" data-name="Group 29" transform="translate(5.232 13.23)">
            <g id="Group_28" data-name="Group 28">
                <path id="Path_20" d="M119.786 267.175h-13.38a.755.755 0 0 0-.755.755 7.445 7.445 0 1 0 14.89 0 .755.755 0 0 0-.755-.755zm-6.69 6.69a5.945 5.945 0 0 1-5.888-5.181h11.776a5.945 5.945 0 0 1-5.884 5.181z" class="cls-1" data-name="Path 20" transform="translate(-105.651 -267.175)"/>
            </g>
        </g>
    </g>
</svg>
